<?xml version="1.0" encoding="UTF-8"?>
<svg id="Layer_1" data-name="Layer 1" xmlns="http://www.w3.org/2000/svg" viewBox="0 0 1603.81 1094.53">
  <defs>
    <style>
      .cls-1 {
        font-size: 51px;
      }

      .cls-1, .cls-2, .cls-3, .cls-4, .cls-5, .cls-6, .cls-7, .cls-8, .cls-9, .cls-10, .cls-11, .cls-12, .cls-13, .cls-14, .cls-15, .cls-16, .cls-17, .cls-18 {
        fill: none;
      }

      .cls-1, .cls-2, .cls-3, .cls-19, .cls-5, .cls-7, .cls-9, .cls-10, .cls-11, .cls-12, .cls-13, .cls-14, .cls-15, .cls-16, .cls-17, .cls-18 {
        isolation: isolate;
      }

      .cls-1, .cls-2, .cls-3, .cls-5, .cls-7, .cls-8, .cls-9, .cls-10, .cls-11, .cls-12, .cls-13, .cls-14, .cls-15, .cls-16, .cls-17, .cls-18 {
        stroke: #000;
      }

      .cls-1, .cls-2, .cls-5, .cls-7, .cls-9, .cls-10, .cls-11, .cls-12, .cls-13, .cls-14, .cls-15, .cls-16, .cls-18 {
        font-family: BodoniMT, 'Bodoni MT';
      }

      .cls-2, .cls-5 {
        font-size: 69px;
      }

      .cls-3 {
        letter-spacing: .02em;
      }

      .cls-3, .cls-17 {
        font-family: GoudyOldStyleT-Regular, 'Goudy Old Style';
        font-size: 56px;
      }

      .cls-20 {
        letter-spacing: -.08em;
      }

      .cls-4 {
        stroke: #5cf8ff;
        stroke-width: 6px;
      }

      .cls-4, .cls-6, .cls-8 {
        stroke-miterlimit: 10;
      }

      .cls-5 {
        stroke-miterlimit: 4;
        stroke-width: 1px;
      }

      .cls-6 {
        stroke: red;
      }

      .cls-6, .cls-8 {
        stroke-width: 3px;
      }

      .cls-7 {
        font-size: 38px;
      }

      .cls-9 {
        letter-spacing: .3em;
      }

      .cls-9, .cls-14, .cls-15 {
        font-size: 64px;
      }

      .cls-10 {
        letter-spacing: -.1em;
      }

      .cls-10, .cls-11, .cls-12, .cls-18 {
        font-size: 36px;
      }

      .cls-12 {
        letter-spacing: -.08em;
      }

      .cls-13 {
        font-size: 48px;
      }

      .cls-14 {
        letter-spacing: .02em;
      }

      .cls-21 {
        letter-spacing: -.04em;
      }

      .cls-16 {
        font-size: 34px;
      }

      .cls-18 {
        letter-spacing: .04em;
      }
    </style>
  </defs>
  <path class="cls-8" d="m489.55,578.2l8.88,56.26v20.98l10.62,10.02,21.5,30.7,6.79,12.3c-17.83-3.8-22.81-2.26-23.89,0-2.28,4.77,12.96,12.39,31.11,35.5,2.83,3.6,24,36,24,36l-2.71,17.9,41.71,42.1s-1,14,10,10,3-18,3-18c-2.86-11.85-4.28-15.11-5-15-1,.15-.6,6.78-2,7-1.51.24-2.29-7.37-6.5-8.5-3.08-.82-5.75,2.43-7.94,1.04-1.07-.68-1.41-2.04-1.56-3.54-1-10,0-19,0-19,0,0-17-53-28-61s-8-32-8-32l-5.1-4.8-6.9-12.2-19-25.24c-4.67-40.54-3.17-50.65-.5-51.26,2.83-.65,7.77,9.2,15,8,1.49-.25,1.82-.75,3-1,3.46-.73,9.08,1.84,18.5,16.5l-4.29,7.18,14.29,41.82,1,8,11,16s16,19,22,19-11,6,2,15,28,28,28,28c0,0-9,5-9,13s9,5.54,9,5.54c0,0,3.05-1.53,3.5-1.04.75.82-6.62,6.29-5.5,9.5,1.18,3.37,10.17-.1,17.12,5.37,2.51,1.97,4.84,4.49,6.88,10.63,6,18,7,11,7,11,0,0,4.27-1.43,4.5-1.5,2.37-.72,10.73,10.45,34.72,55.91,0,0,10.4,38.9,2.09,47.24-8.31,8.34.69,13.34.69,13.34,0,0,15,28,29,33s20,18,20,18l30,11s8.32-5,9.16,0c.84,5,7.66,0,7.66,0,0,0,2.18,8,4.18,10s54,25,54,25c0,0,30,16,35,19s23.53,4.36,26.76,4.18c3.24-.18,22.24.82,22.24,1.82s20-13,20-13l9.39-2.5,18.61,10.5-2.28,14.41s2.28,6.59,5.28,6.59,4,11,4,11c0,0,9,9,23,9s25,1,31-4,26-12,27-13,4.5-9.07,4.5-9.07c0,0,9.5-7.93,15.5-8.93s25.55-4.86,25.55-4.86c0,0,11.45-38.14,10.45-40.14s.06-18.07.06-18.07l4.94-6.93s4.86-22.35,5-22.99c.68-3.15,1.34-6.3,2-9.45-2.07.32-4.18.49-4.42-.14-.52-1.41,8.89-5.27,8.32-7.38-.54-1.99-9.69-1.28-9.73-2.08-.02-.39,2.21-1.3,4.35-2.18.29-.12.98-.39,1.32-1.06.19-.38.19-.83.19-1.26-.04-3.49-.03-6.98-.03-10.47,0,0,19.87-25.12,13.94-32.01-1.43-1.66-4.02-1.31-9.94-1.08-16.28.61-17.49-1.11-26.45-.51-14.21.95-44.68,7.52-49.51,24.26l-1.03,19.34-6,6v11c-5.17,4.17-10.33,8.33-15.5,12.5,1.89,1.73,2.18,3.27,2.24,3.96.31,3.67-3.87,7.98-10.74,9.54,0,0-2-14-13-7s-28,8-30,7-21,16-32,0-28-6-28-6l-13-19s-3-20-15-26-12-35-12-35c0,0-13-33-5-45s3-42,11-48c.13-.1,4.8-5.16,4.08-6-.47-.55-2.68,1.36-5.58,1.5-3.59.18-6.71-2.41-9-5,.06.08.08.14.06.19-.32.72-11.34-3.34-33.06-12.19-1.55-5.38-4.15-11.51-8.5-17.5-4.1-5.64-7.68-10.58-14-13-8.04-3.08-11.49,1.38-18-2-5.51-2.86-9.83-9.58-10-16-.2-7.81,5.89-9.22,8-22,.46-2.78.85-6.81,2.07-6.94.87-.09,1.78,1.8,2.43,3.44h0s-2.97,1.33-4.5,3.5c-1.79,2.53-.42,4.52-2.5,6.5-1,.95-2.16,1.53-2.16,1.53-1.73.97-2.71.89-3.84,2.47-2.54,3.54-1.01,8.65,0,12,1.12,3.73,3.65,12.17,11,16,8.74,4.55,15.77-1.87,21,3,3.74,3.48,3.3,9.69,3,14-.14,2.03-.66,9.38-6,15-3.15,3.32-5.12,3.01-10,6-.62.38-10.28,6.43-15,16-5.32,10.79,1.1,15.01-4,23-5.37,8.42-14.03,6.13-18,15-2.06,4.61-1.53,9.28-1,14,.7,6.18,2.69,10.79,5,16,4.56,10.3,8.42,14.16,7,16-1.25,1.62-4.97-.43-12-2-12.32-2.75-15.35.32-33-2-7.45-.98-11.18-1.47-13-3-9.07-7.62-2.36-26.07-9-29-4.32-1.91-10.35,4.49-13,2-1.78-1.67.47-4.99-2-9-1.29-2.09-2.3-1.85-4-4-2.49-3.15-2.76-6.75-3-10-.46-6.18,1.21-11.02,2-13,2.79-7.03,7.59-11.18,10-13v-10c1.97-1.89,4.29-4.76,4-8-.29-3.26-2.93-3.56-4-7-1.25-4,1.61-5.9,5-17,1.3-4.25.93-4.14,2-7,2.79-7.48,5.09-7.68,5-11-.15-5.48-6.53-8.69-5-12,.62-1.35,2.13-1.77,2-3-.13-1.29-1.87-1.38-3-3-1.35-1.94-1.11-5.01,0-7,1.69-3.03,4.65-2.24,6-5,1.03-2.1.6-5.2-1-7-3.2-3.61-9.79-.55-11-3-.91-1.84,1.63-5.95,5-7,4.02-1.25,7.24,2.47,9,1,1.43-1.2,1.02-5.11-1-7-1.81-1.69-3.6-.54-8-2-1.72-.57-5.84-1.94-6-4-.21-2.66,6.36-4.34,6-7-.16-1.2-1.56-1.3-3-3-2.11-2.49-1.88-5.57-2-8,0,0-.22-4.55-4-13-1.43-3.2-4.95-8.96-14.65-13.87-2.54-2.41-5.09-4.82-7.63-7.23-11.24-1.63-22.48-3.27-33.72-4.9-.59,1.3-2.83,5.85-8,8-3.09,1.28-8.89,2.4-11.5-.5-.67-.75-1.62-2.31,0-12,.81-4.84,1.77-8.79,2.5-11.5l-3,24c-3.69-.61-7.38-1.22-11.07-1.83-3.42.15-8.22.21-13.93-.17-3.28-.22-17.55-1.29-37-8-11.07-3.82-27.26-10.64-45.17-23.06l-17.33-13.44-41-13.76-.02.02Z"/>
  <path class="cls-6" d="m489.55,137.96s74.25,20.25,169,38c4.97.93,98.54,34.37,107.7,17.12,2.27-4.28-.56-11.84,5.3-18.12,4.44-4.76,8.1-2.62,15-7,9-5.71,15.54-17.45,15-28-.36-6.93-3.51-8.2-2-13,1.79-5.67,8.55-11.3,14-14,1.98-.98,5.62-2.48,7-6,.64-1.64.29-2.45,1-3,2.22-1.73,7.15,5.02,15,7,9.33,2.35,13.7-4.34,20-1,5.83,3.09,5.34,10.53,9,11,2.35.3,5.82-2.39,11-14h28c4.26,5.17,21.72,26.12,39,40,9,7.23,14.78,9.99,17,11,8.37,3.79,10.05,2.46,17,6,10.13,5.16,8.49,8.97,19,15,7.89,4.52,10.72,3.46,20,9,4.91,2.93,8.61,5.91,11,8,.64.97,1.64,2.7,2,5,1.7,10.69-12.07,21.64-11.67,22,.19.17,3.21-2.35,3.62-3.05,4.05-6.96,8.05-1.96,10.05,1.04s22,1,22,1c0,0,14-12,17-11s67,29,67,29c.14.74,1.25,5.98,6.04,8.39,2.19,1.1,4.27,1.17,5.46,1.11,1.59-.66,2.7-.39,3.12-.25,2.31.75,3.91,3.92,3.38,7.75l7.5,1.5c.83,1.83,1.67,3.67,2.5,5.5,0,0,27,6,26,26,0,0,12,33,5,40,0,0-1,21-8,22s3,33,28,2c0,0,43-19,45-29,0,0-9-15-5-16s26-13,37-11c0,0,19-43,30-44s56-16,56-16c0,0,4-14,13-9,.39.22.75.29,1.09.25,4.07-.57-.56-63.62,3.91-64.25.33-.05.81.24,1.5,1.5,1.78,1.5,4.79,3.56,8.5,3.5,6.95-.11,11.15-7.95,15.29-6.09,1.53.69,2.84,2.24,3.71,5.09,4,13,13,33,13,33l9-1,2,11,11,5-14,15-7,7s-8,0-9-2,3.64,15.49-.18,15.74c-3.82.26-7.82-2.74-7.82-2.74,0,0-4,6-5,6s-5,3-4,9-8,21-2,27-9,12,0,14,12,10,12,10c0,0,8-2,3-9s8,2,8,5-14,6-18,11c-6.61-6.72-9.05-7.62-10-7-2.28,1.48,3.68,12.05-.68,16.42-1.02,1.02-2.19,1.3-3.32,1.58-4.75,1.18-15.88,3.94-21.5,6.5-1.88.86-11.55,5.26-13.5,13.5-1.28,5.4.52,13.49.52,13.49,0,0,6.48,18.51-3.52,30.51l-2,13-6-11s-12-3-13-5-16,12-16,12l4,13-6,5,7,4-1,5c-1.73.9-2.56,1.74-2.5,2.5.11,1.41,3.28,2.58,9.5,3.5l1,6-13-7c14.48,7.2,17.52,10.92,17,13-.3,1.22-1.85,1.92-2.5,4.5-.19.76-.93,3.72.5,5.5,2.59,3.22,10.02.08,11.75,3.01.16.27.25.6.25.99,0,4,4,13-1,16-4.04,2.42-5.86,5.49-5.33,6.48.62,1.19,5.44-1.4,9.83,1.02.91.5,2.2,1.21,2.5,2.5.48,2.11-2.55,3.2-4.5,7.5-1.79,3.95-1.05,5.15-2.5,6.5-3.76,3.5-12.85-.66-13.07,0s9.34,3.59,9.09,5.82c-.26,2.27-10.53,2.55-10.51,3.68.02,1.32,14.14,1.04,14.59,3.62.24,1.4-3.52,3.77-16.09,7.88,0,0-12,18-12,20s-19,14-22,21-10,22-24,28l-8,16-6,10-1,9v14s6,21,8,21,21,39,21,41,17,26,17,26c0,0,9,83-31,35,0,0-5-13-10-13-1.38,0-2.38.38-3.11.93-1.81,1.38-1.63,4.08-1.89,4.07-.2,0-.43-1.44-.5-8.5.17-2.83.33-5.67.5-8.5-2.17-1.83-4.33-3.67-6.5-5.5-.64-3.59-2.93-15.33-6.5-15.5-.44-.02-1.07.07-1.46.49-1.77,1.89,3.04,8.65.46,9.51-3,1-8-26-5-33s-16-14-16-14l-6-9s-8-5-14-5-22,11-22,11c0,0-17-11-15-10s-18-5-18-5l-14,6c-3.15,1.1-6.3,2.19-9.45,3.29-5.68.4-11.36.81-17.05,1.21-8.45-1.88-33.84-6.75-45.5,3.5-1.02.9-4.08,3.62-3.45,5.41,1.51,4.33,21.45.59,21.45.59,6.06,8.15,9.45,15.5,7.5,17.5-2.03,2.09-10.08-1.38-19.5-8.5-1.3.29-2.84.74-4.5,1.5-2.99,1.37-5.13,3.14-6.5,4.5-3.5.17-7,.33-10.5.5-14.94-10.12-19.96-11.02-21.5-9.5-1.65,1.63.83,5.92-1.5,8.5-1.95,2.16-5.99,1.69-9,1-1.55-1.15-3.65-2.82-6-5-6.22-5.78-8.02-9.49-10-9-2.38.59-.52,6.16-4,10-4.16,4.59-10.84,1.07-21,4-5.27,1.52-8.5,3.92-14,8-11.56,8.58-11.33,13.64-20,21-12.33,10.46-19.8,6.15-27,14-4.91,5.35-9.03,15.64-3.94,37.44,3.39,9.94,1.71,12.96.44,14.06-3.01,2.6-9.19-.77-21.5-5.5-9.8-3.77-18.12-6.33-24-8-3-7.67-6-15.33-9-23,.54-3.37.53-7.41-1.27-11.3-.56-1.21-.84-2.23-1.23-2.2-1.77.15,4.43,20.91-5,33-5.9,7.57-12.19,4.38-22,15-2.62,2.84-6.63,7.18-9,14-3.41,9.82.19,14.39-4,20-4.14,5.54-9.05,2.95-13.92,8.09-7.36,7.78-4.14,22.18-3.08,26.91,3.72,16.61,14.28,25.64,12,28-1.55,1.61-5.97-3.11-16-5-6.45-1.21-7.15.26-22,0-10.06-.18-13.18-.91-16-2-2.88-1.11-9.4-3.63-11-9-.56-1.86.17-1.76,0-8-.2-7.2-1.2-8.98-2-10-.38-.49-2.33-2.99-5-3-3.07,0-3.98,3.3-6,3-2.51-.37-1.94-5.63-6-12-2.85-4.47-4.68-4.3-6-8-.97-2.72-.66-5.18,0-10,1.16-8.43,1.89-13.79,6-17,2.27-1.78,4.25-1.86,5-4,.91-2.57-1.41-3.98-1-7,.56-4.09,5.19-4.31,6-8,.86-3.95-3.91-5.21-5-11-.61-3.22.81-3.22,5-17,1.73-5.68,1.75-6.53,3-9,2.18-4.28,3.87-5.15,4-8,.13-3-1.69-3.24-3-8-1.23-4.45.17-4.96-1-10-1.13-4.91-2.8-5.92-2-8,1.14-2.96,5.05-2.29,6-5,.99-2.83-2.09-6.86-5-9-4.39-3.24-8.81-2.46-9-4-.17-1.4,3.33-3.61,7-4,4.71-.5,6.82,2.29,9,1,2.45-1.44,3.18-6.96,1-9-3.23-3.02-11.34,3.01-14,0-1.26-1.42-.8-4.31,0-6,1.35-2.83,4.22-3.45,4-5-.18-1.29-2.22-1.27-3-3-.9-2.01.74-4.52,1-5,1.53-2.8-2.54-11.46-25-36-12.67-2-25.33-4-38-6,0,0,1,13-20,8s-54,8-124-46l-41-13.76-25-38.24c-10.83-10.64-21-16.28-28.5-19.5-9.54-4.09-17.96-5.62-18.81-10.5-.73-4.2,4.55-8.66,9.19-11.8-6.13-8.87-9.49-16.99-11.38-22.7-3.85-11.59-3.24-17.99-3-20,.49-4.03,1.58-7.28,2.5-9.5l-11-31.67c-5.51-13.26-6.53-17.07-6-17.33.65-.32,2.55,5.11,7.5,6.5,3.23.91,4.45-.84,9,0,3.51.65,5.92,2.26,7,3,2.01,1.38,6.77,5.19,6,7-1.01,2.37-11.99,2.4-20-3-8.86-5.98-13.55-16.74-13.51-24.56,0-.78-.37-1.61-.44-2.94-.29-5.23,2.83-8.25,4.45-11.57,1.89-3.88.76-10.23-1.5-22.94-.9-5.07-1.87-9.28-2.62-12.3l15.12-38.2c1.01-3.91,2.64-9.86,5-17,4.9-14.81,9.47-24.23,13.5-33.5,0,0,9.12-20.05,14.5-39.5,11.25-40.69,7.11-68.35,14.5-69.5,4-.62,11.93,6.44,11.5,10.5-.03.28-.1.56,22-11v.02Z"/>
  <path class="cls-6" d="m408.55,297.96s215.5,69.5,245.5,58.5l11-76c26.17,5.5,52.33,11,78.5,16.5.63,7.09.84,17.71-2,30-2.99,12.95-7.03,17.98-9,26-2.48,10.07-1.89,25.74,14,49,1.67,3.67,3.33,7.33,5,11-6.37,16.46-12.42,35.52-17,57-2.16,10.11-3.79,19.81-5,29-18.66-.27-37.31-.53-55.97-.8l9.47-111.7-36-4s26.39-85.97,10.84-93c-.37-.17-1.87-.09-4.84,0-8.46.24-11.31,1.11-16,1-2.6-.06-6.39-.45-11-2-4.67-6.27-5.83-11.41-6-15-.08-1.69.12-1.86,0-4-.4-7.31-3.19-14.16-5-14-1.16.1-.84,2.97-3,4-2.63,1.26-6.24-1.49-6.7-1.84-.57-.44-4.73-3.72-4.3-9.16.41-5.15,4.59-7.75,5-8,3.08-3.33,6.17-6.67,9.25-10,0,0-11.25-17-16.25-20s-4-24-4-24c0,0,1.94-23.48,4.97-22.24,3.03,1.24-17.64-3.83-17.64-3.83,0,0-17.32,69.07-15.32,77.07s-42-20-68-6c0,0-13-7-27-7s-3.35-25.28-28.18-25.64c0,0-10.82,39.64-16.82,48.64s-19,50-18.5,50.5h0Z"/>
  <polygon class="cls-6" points="489.94 322.77 464.05 400.46 548.05 519.46 556.05 492.46 564.31 498.16 595.86 350.46 489.94 322.77"/>
  <path class="cls-6" d="m654.55,637.96l19.54-145.84-104.79-17.38-5,23.42-8.26-5.7-8,27,7,26s-6,13-12,21-12.5,25.5-12.5,25.5c0,0,52.5,49.5,124,46h.01Z"/>
  <path class="cls-6" d="m1114.05,677.46c-4.27-.32-8.09-27.32-8-130h56.72s17.62,58,21.45,65-6.83,22.23,0,31.62c6.83,9.38-53.12,13.28-53.12,13.28,3.34,13.2,2.12,17.61,0,18.89-1.56.95-3.22-.05-9.05.21-4.87.22-7.17,1.06-8,1h0Z"/>
  <path class="cls-6" d="m1214.05,536.46s-34.55,11-51.28,11l21.45,65v31.62s-.17,18.38,45.83,8.38l23.62,2.98v-17.3l10.88,6.82s-3.5-34.5,7-33-58.5-50.5-57.5-75.5h0Z"/>
  <path class="cls-6" d="m819.55,734.96c.47,6.84,4.62,13,10,16,6.89,3.84,10.61-.42,18,2,15.33,5.02,21.04,30.42,22,30,.32-.14-.38-2.2-.38-2.2-2.41-7.12-8.63-25.46-21.62-27.8-4.95-.89-6.05,1.41-12,0-.73-.17-7.9-1.96-12-7-8.72-10.72-1.86-34.14,11-41,6.09-3.25,9.18-.75,15-5,6.85-5,8.96-14.36,10-19,1.62-7.19.04-8.33,2-13,2.14-5.1,5.64-7.61,13-13,19.92-14.6,21.47-16.18,22-19,1.45-7.76-6.27-17.73-13-18-5.62-.22-7.49,6.44-12,6-8.91-.87-16.66-28.37-10-33,4.68-3.26,12.27,7.71,28,9,11.24.92,21.01-3.56,28-8,1.17-.17,2.33-.33,3.5-.5h12s10.34,5.98,11.17,4.49c.83-1.49-3.17-2.49.83-1.49s16-9,16-9l18.91,10.49c2.97,18.51,5.69,37.69,8.09,57.51,1.97,16.25,3.62,32.13,5,47.62,0,0-23-3.62-27,9.38s-6,4-20,21-39.87-10.12-30.94,51.44c0,0,21.94,33.56-45.06.56-7.46-22.85-15.81-29.3-22.5-30.5-5.86-1.05-11.33,1.78-18-2-.32-.18-7.49-4.39-9-12-2.46-12.36,11.89-24.11,11.48-24.45-.36-.3-13.39,7.38-12.48,20.45Z"/>
  <path class="cls-6" d="m1185.08,369.35l-79.03,11.23s4,62.94,0,67.4,10,18.37,0,19.92-.74,16.85-.74,16.85l17.74-5.3-.11-11.55h22.62l17.21-18.9,28.28-3.55,22,2,4.66-1.51,7.37-18.89,10.21-5.94,13.77-11.65-12-55s-25.95,30.79-51.97,14.89h-.01Z"/>
  <path class="cls-6" d="m1295.05,412.46l-13,21-9.41,7.38-8.59,22.62-25.7,21.3s-35.3-22.3-25.3-37.3,36-38,36-38c0,0,46-14,46,3Z"/>
  <path class="cls-6" d="m1353.05,475.46c-34.3,6.53-69.98,12.59-107,18-48.57,7.1-95.31,12.49-140,16.5v9.5h-30.09l-12.26,36.98h42.34v-8.98s84,1,108-11,53.91,0,53.91,0h19.4l27.25,19.98,22.93-29.48c4.17-2.83,8.33-5.67,12.5-8.5-2.33-.67-4.67-1.33-7-2-.14-.75-.28-1.5-.41-2.26,1.14-.91,2.28-1.83,3.41-2.74-.67-1.33-1.33-2.67-2-4,3.17-.5,6.33-1,9.5-1.5l4.5-16.5-9.83-1.02c1.61-4.33,3.22-8.66,4.83-12.98h.02Z"/>
  <path class="cls-6" d="m1097.41,354.46l-57.36,7s24,23.55,0,26.28,0,16.3,0,16.3c0,0-17.74,20.3-1.87,40.36s25.22,23.51,25.22,23.51c0,0-2.35,16.55,10.65,22.55s3.96,11,3.96,11h19.4l7.9-16.7.74-36.77v-67.4l-8.64-26.13h0Z"/>
  <polygon class="cls-6" points="1048.05 607.46 983.22 612.46 967.05 519.46 1063.71 515.59 1055.05 529.46 1072.61 529.6 1063.71 556.44 1050.05 575.46 1046.05 587.46 1048.05 607.46"/>
  <path class="cls-6" d="m1083.31,675.13v-16.41h-44.1l11.85-33.26-3-18-64.84,5,9.84,88.62,8-2.62s-2-15,4-10,16,14,16,14l9-1s-5-9,1.5-8.5,21.5,9.5,21.5,9.5l21.5-6.5c5.83,2.17,11.67,4.33,17.5,6.5-.07-9.92-2.79-13.84-5.5-15.5-7.14-4.36-20.6,3.1-21.72.66-.15-.33-.03-.72.27-1.25,3.02-5.44,16.22-10.49,18.21-11.24h-.01Z"/>
  <path class="cls-6" d="m537.34,330.93l15.71-47.47-7.86-10.26,29.86-25.74-8-10,15.32-77.07,17.64,3.83s-7.36,31.85-4.16,39.04,19.44,27.2,19.44,27.2c0,0-23.3,17.68-11.27,25.34,5.82,3.71,8.65,3.63,10.02,2.56,1.43-1.12.76-3.29,1.26-3.39,0,0,1.73-.35,10.75,33.49h0l27,1,9.39,9.01-8.39,57.99s-97.42.93-116.71-25.53h0Z"/>
  <g class="cls-19">
    <text class="cls-17" transform="translate(852.5 184.68)"><tspan x="0" y="0">.Sal</tspan></text>
    <text class="cls-3" transform="translate(932.07 184.68)"><tspan x="0" y="0">t</tspan></text>
    <text class="cls-17" transform="translate(949.87 184.68)"><tspan x="0" y="0">a</tspan></text>
  </g>
  <g class="cls-19">
    <text class="cls-13" transform="translate(589.5 425.86)"><tspan x="0" y="0">De</tspan></text>
    <text class="cls-13" transform="translate(646.45 425.86)"><tspan class="cls-20" x="0" y="0">n</tspan><tspan class="cls-21" x="22.31" y="0">v</tspan></text>
    <text class="cls-13" transform="translate(694.92 425.86)"><tspan x="0" y="0">er</tspan></text>
  </g>
  <g class="cls-19">
    <text class="cls-7" transform="translate(925.5 583.24)"><tspan x="0" y="0">Oklahoma City</tspan></text>
  </g>
  <g class="cls-19">
    <text class="cls-10" transform="translate(1131.5 438.91)"><tspan x="0" y="0">W</tspan></text>
    <text class="cls-11" transform="translate(1162.72 438.91)"><tspan x="0" y="0">ashington, </tspan></text>
    <text class="cls-12" transform="translate(1131.5 482.11)"><tspan x="0" y="0">D</tspan></text>
    <text class="cls-11" transform="translate(1155.86 482.11)"><tspan x="0" y="0">.</tspan></text>
    <text class="cls-18" transform="translate(1165.62 482.11)"><tspan x="0" y="0">C</tspan></text>
    <text class="cls-11" transform="translate(1188.31 482.11)"><tspan x="0" y="0">.</tspan></text>
  </g>
  <g class="cls-19">
    <text class="cls-15" transform="translate(745.5 327.45)"><tspan x="0" y="0">.Cordoba</tspan></text>
  </g>
  <g class="cls-19">
    <text class="cls-15" transform="translate(.5 53.45)"><tspan x="0" y="0">Si</tspan></text>
    <text class="cls-14" transform="translate(52.53 53.45)"><tspan x="0" y="0">z</tspan></text>
    <text class="cls-15" transform="translate(81.06 53.45)"><tspan x="0" y="0">e comparison o</tspan></text>
    <text class="cls-9" transform="translate(479.31 53.45)"><tspan x="0" y="0">f</tspan></text>
    <text class="cls-15" transform="translate(509.78 53.45)"><tspan x="0" y="0" xml:space="preserve"> Ar</tspan></text>
    <text class="cls-15" transform="translate(594.78 53.45)"><tspan x="0" y="0">g</tspan></text>
    <text class="cls-15" transform="translate(625.53 53.45)"><tspan x="0" y="0">entina the United St</tspan></text>
    <text class="cls-15" transform="translate(1173.25 53.45)"><tspan x="0" y="0">a</tspan></text>
    <text class="cls-15" transform="translate(1204 53.45)"><tspan x="0" y="0">tes and M</tspan></text>
    <text class="cls-15" transform="translate(1464.66 53.45)"><tspan x="0" y="0">e</tspan></text>
    <text class="cls-15" transform="translate(1492.59 53.45)"><tspan x="0" y="0">xico</tspan></text>
  </g>
  <g class="cls-19">
    <text class="cls-1" transform="translate(836.5 439.84)"><tspan x="0" y="0">Buenos </tspan></text>
    <text class="cls-1" transform="translate(836.5 501.04)"><tspan x="0" y="0">Aires</tspan></text>
  </g>
  <path class="cls-4" d="m759.05,885.46s49-1,55,7-27.5-41.5-8.5-54.5,15-8,16-21c.34-4.46.57-7.98,1.89-11.65,5.31-14.75,27.52-17.62,28.11-30.35.02-.47,0-.85,0-1.01,0,0,8-24.99-12-21.99s-26-28-18-31-3-10,23-21c0,0,13,3,7-7,0,0,5-8,7-7s0-18-1-20,7-15,16-16-1-4-10-8,10.06-9.91,13.53-1.46,10.47,1.46,12.47-5.54-5-19-13-4-1,0-1,0c0,0-9.74-5.4-13.37-7.2s1.37-14.8-3.63-27.8,25,6,31,4,26-2,26-14c0,0-8-8-1-17s4-18,9-20-11-3-10-9,14.45,11,57.22,0c42.78-11,41.78-15,41.78-16s13-15,19-30v-14.99s-18-2.01-11-18.01,3-9-8-20-19-23-12-45l6-1s0-33,4-41-2-25,23-45,27-41,76-60-.9,0-.9,0c0,0,16.9-41-2.1-42h-10.16s.16,31-19.84,34c0,0-4,2-6,9l-3,2s-10-6-14,2c0,0-17-7-24-4,0,0-6-8-28-5,0,0,2-12,10-15,0,0-2-15,7-15,0,0,6-14,11-14,0,0,3-9-33-22,0,0-17-18-31-19s-53-41-61-53h-28.07s-7.93,18-7.93,20-7-20-16-17-20,0-20,0c0,0-13-15-12-1,0,0-7,2-7,4s-3-2-4,2-7,7-7,8-6,6-1,10c0,0,1,12-2,16s-4,18-28,26c0,0-6,5,0,12,0,0,2,8-3,8s5,21,5,21c0,0-9,10,4,21,0,0-4,4-12,5,0,0-11,31-15,32s-3,21-7,23,1,18,1,18c0,0,2.9,12.7-2.55,12.35s-4.45,17.65-4.45,17.65c0,0-9,3-3,17,0,0,6,4,5,7s-1,7,4,14,3,13,3,13v6h6s-3,19,1,23c0,0-10,9-10,26,0,0-9-3,2,13,0,0-2.12,20.62-13.06,21.31s9.06,54.69,8.06,58.69c0,0-13-2-10,21,0,0-5,22-3,41s3,20,3,20l1,7-6,1s1,24,3,25,5-1,8,4c0,0-6,0-6,1s5,8,7,8-2,3-1,5,3,3,3,3c0,0-6,6-4,11h14l-1,9s-17-2-17,1,7,6,13,6c0,0,5,8,1,11s-5,3-5,3v7s8,4,1,7c0,0,8,14,3,16s-2,12-2,13-7,6-8,17c0,0,6,9,5,11s-5,4-5,5,2,8,0,10-8,4-7,12l-5,1s1,15,1,18,5,9,6,8,2,10,4,12,9-9,11-5,4,8,2,9,1,7,2,6,0,6-1,6,3,6,6,8,5.5,3.5,5.5,3.5h0Z"/>
  <path class="cls-4" d="m816.56,909.41c-2.2-6.78-3.42-10.53-4.01-10.45-2,.26-1.43,19.98,1.71,59.16,0,0,26.02-3.34,31.4,0s43.88-7.16,43.88-7.16c0,0-16.25-2.25-33.25-7.75-21.66-7.01-35.52-19.44-37.75-27.25-.1-.35-.83-2.98-1.99-6.55h0Z"/>
  <g class="cls-19">
    <text class="cls-16" transform="translate(720.5 943.59)"><tspan x="0" y="0">Ushuaia.</tspan></text>
  </g>
  <g class="cls-19">
    <text class="cls-2" transform="translate(463.4 792.91) rotate(52.14)"><tspan x="0" y="0">M</tspan></text>
  </g>
  <g class="cls-19">
    <text class="cls-2" transform="translate(504.3 842.18) rotate(40.57)"><tspan x="0" y="0">e</tspan></text>
  </g>
  <g class="cls-19">
    <text class="cls-5" transform="translate(530.64 864.58) rotate(31.88)"><tspan x="0" y="0">x</tspan></text>
  </g>
  <g class="cls-19">
    <text class="cls-2" transform="translate(565.64 885.46) rotate(25.28)"><tspan x="0" y="0">i</tspan></text>
  </g>
  <g class="cls-19">
    <text class="cls-2" transform="translate(584.87 894.66) rotate(20.12)"><tspan x="0" y="0">c</tspan></text>
  </g>
  <g class="cls-19">
    <text class="cls-2" transform="translate(615.44 905.76) rotate(14.1)"><tspan x="0" y="0">o</tspan></text>
  </g>
</svg>